<svg width="25" height="25" viewBox="0 0 25 25" fill="none" xmlns="http://www.w3.org/2000/svg">
<path d="M1.93934 20.9393L0.878679 22L3 24.1213L4.06066 23.0607L1.93934 20.9393ZM24.0607 3.06066C24.6464 2.47487 24.6464 1.52513 24.0607 0.93934C23.4749 0.353553 22.5251 0.353553 21.9393 0.93934L24.0607 3.06066ZM4.06066 23.0607L24.0607 3.06066L21.9393 0.93934L1.93934 20.9393L4.06066 23.0607Z" fill="black"/>
<path d="M3 0.499999L1.5 0.499999L1.5 3.5L3 3.5L3 0.499999ZM23 2L24.5 2C24.5 1.17157 23.8284 0.5 23 0.5L23 2ZM21.5 22C21.5 22.8284 22.1716 23.5 23 23.5C23.8284 23.5 24.5 22.8284 24.5 22L21.5 22ZM3 3.5L23 3.5L23 0.5L3 0.499999L3 3.5ZM21.5 2L21.5 22L24.5 22L24.5 2L21.5 2Z" fill="black"/>
</svg>
